<svg xmlns="http://www.w3.org/2000/svg" width="14.505" height="17.853" viewBox="0 0 14.505 17.853"><defs><style>.a{fill:#ff8392;}</style></defs><path class="a" d="M61.111,2.232H58.042V1.674A1.676,1.676,0,0,0,56.369,0H54.137a1.676,1.676,0,0,0-1.674,1.674v.558H49.395A1.4,1.4,0,0,0,48,3.626V5.579a.558.558,0,0,0,.558.558h.3l.482,10.122a1.672,1.672,0,0,0,1.672,1.594h8.472a1.672,1.672,0,0,0,1.672-1.594l.482-10.122h.3a.558.558,0,0,0,.558-.558V3.626A1.4,1.4,0,0,0,61.111,2.232Zm-7.532-.558a.559.559,0,0,1,.558-.558h2.232a.559.559,0,0,1,.558.558v.558H53.579ZM49.116,3.626a.279.279,0,0,1,.279-.279H61.111a.279.279,0,0,1,.279.279V5.021H49.116Zm10.93,12.579a.557.557,0,0,1-.557.531H51.017a.557.557,0,0,1-.557-.531L49.98,6.137H60.526Z" transform="translate(-48)"/><path class="a" d="M240.558,216.369a.558.558,0,0,0,.558-.558v-7.253a.558.558,0,0,0-1.116,0v7.253A.558.558,0,0,0,240.558,216.369Z" transform="translate(-233.305 -200.747)"/><path class="a" d="M320.558,216.369a.558.558,0,0,0,.558-.558v-7.253a.558.558,0,0,0-1.116,0v7.253A.558.558,0,0,0,320.558,216.369Z" transform="translate(-310.516 -200.747)"/><path class="a" d="M160.558,216.369a.558.558,0,0,0,.558-.558v-7.253a.558.558,0,0,0-1.116,0v7.253A.558.558,0,0,0,160.558,216.369Z" transform="translate(-156.095 -200.747)"/></svg>