<svg xmlns="http://www.w3.org/2000/svg" width="15.473" height="15.472" viewBox="0 0 15.473 15.472"><defs><style>.a{fill:#fff;}</style></defs><path class="a" d="M4.642,12.378a1.547,1.547,0,1,0,1.547,1.547A1.552,1.552,0,0,0,4.642,12.378ZM0,0V1.547H1.547L4.332,7.427,3.249,9.283a2.749,2.749,0,0,0-.155.774A1.552,1.552,0,0,0,4.642,11.6h9.284V10.057H4.951A.166.166,0,0,1,4.8,9.9V9.825l.7-1.315h5.725a1.411,1.411,0,0,0,1.315-.774l2.785-5.028a.426.426,0,0,0,.155-.387.731.731,0,0,0-.774-.774H3.249L2.553,0ZM12.378,12.378a1.547,1.547,0,1,0,1.547,1.547A1.552,1.552,0,0,0,12.378,12.378Z"/></svg>