<svg xmlns="http://www.w3.org/2000/svg" width="15.297" height="14.322" viewBox="0 0 15.297 14.322"><defs><style>.a{fill:#fff;}</style></defs><g transform="translate(0 -16.314)"><g transform="translate(0 16.314)"><path class="a" d="M14.341,20.12H11.316a3.714,3.714,0,0,0,.533-.427,2,2,0,0,0,0-2.813,2.021,2.021,0,0,0-2.8,0,5.262,5.262,0,0,0-1.362,3.24H7.614a5.267,5.267,0,0,0-1.362-3.24,2.021,2.021,0,0,0-2.8,0,2,2,0,0,0,0,2.813,3.783,3.783,0,0,0,.534.427H.956A.958.958,0,0,0,0,21.076v2.39a.478.478,0,0,0,.478.478H.956V29.68a.958.958,0,0,0,.956.956H13.385a.958.958,0,0,0,.956-.956V23.944h.478a.478.478,0,0,0,.478-.478v-2.39A.958.958,0,0,0,14.341,20.12ZM4.125,17.553a1.019,1.019,0,0,1,1.448,0c.644.648,1.285,2.3,1.062,2.535a.315.315,0,0,1-.177.032,4.7,4.7,0,0,1-2.334-1.1A1.043,1.043,0,0,1,4.125,17.553ZM7.171,29.68H1.912V23.944H7.171Zm0-6.692H.956V21.076H7.171Zm2.553-5.434a1.03,1.03,0,0,1,1.448,1.465,4.7,4.7,0,0,1-2.334,1.1.314.314,0,0,1-.178-.032C8.438,19.858,9.079,18.2,9.723,17.553ZM13.385,29.68H8.127V23.944h5.258Zm.956-6.692H8.127V21.076h6.214Z" transform="translate(0 -16.314)"/></g></g></svg>