<svg xmlns="http://www.w3.org/2000/svg" width="20.982" height="18.427" viewBox="0 0 20.982 18.427">
  <defs>
    <style>
      .cls-1 {
        fill: #374053;
      }
    </style>
  </defs>
  <path id="Shape_9" data-name="Shape 9" class="cls-1" d="M1620.891,3650.861h-3.163v3.094a.434.434,0,0,1-.437.429h-.9a.434.434,0,0,1-.438-.429v-3.094h-3.164a.433.433,0,0,1-.438-.427v-.881a.434.434,0,0,1,.438-.429h3.164v-3.093a.433.433,0,0,1,.438-.428h.9a.432.432,0,0,1,.437.428v3.093h3.163a.434.434,0,0,1,.438.429v.881A.433.433,0,0,1,1620.891,3650.861Zm-9.482-7.562a.443.443,0,0,1-.257.08h-.446a4.17,4.17,0,0,1,.913,2.716,4.035,4.035,0,0,1-1.739,3.179c-.867.658-.9.839-.9,1.218a3.634,3.634,0,0,0,1.281,1.344,4.186,4.186,0,0,1,2.13,3.885c0,1.835-1.426,3.422-3.632,4.048a8.4,8.4,0,0,1-2.276.3,10.688,10.688,0,0,1-2.554-.3,4.961,4.961,0,0,1-3.233-2.043,2.561,2.561,0,0,1-.348-1.281,3.194,3.194,0,0,1,.334-1.387c.851-1.771,3.09-2.961,5.572-2.961h.071a2.113,2.113,0,0,1-.3-1.086,2.26,2.26,0,0,1,.077-.573,4.424,4.424,0,0,1-4.55-4.379,4.7,4.7,0,0,1,3.447-4.109,5.757,5.757,0,0,1,1.835-.31h5.565a.437.437,0,0,1,.416.3.421.421,0,0,1-.16.479Zm-8.179,12.563c0,1.391,1.424,2.482,3.241,2.482,2.4,0,3.613-.808,3.613-2.4a1.95,1.95,0,0,0-.057-.462c-.162-.62-.741-1.006-1.619-1.591-.121-.08-.247-.163-.376-.251a4.2,4.2,0,0,0-1.193-.177h-.051S1603.231,3654.581,1603.231,3655.861Zm5.517-9.6c-.217-1.613-1.394-2.952-2.624-2.988h-.049a1.463,1.463,0,0,0-1.119.506,2.758,2.758,0,0,0-.531,2.219c.215,1.609,1.417,3,2.622,3.036h.021a1.465,1.465,0,0,0,1.132-.505A2.858,2.858,0,0,0,1608.747,3646.257Z" transform="translate(-1600.347 -3641.642)"/>
</svg>
