<svg xmlns="http://www.w3.org/2000/svg" width="11.012" height="10.986" viewBox="0 0 11.012 10.986">
  <defs>
    <style>
      .cls-1 {
        fill: #ff8392;
      }
    </style>
  </defs>
  <path id="Shape_315" data-name="Shape 315" class="cls-1" d="M666.755,3647.853l-.015,0a4.5,4.5,0,0,1-6.466,0l-.015,0a3.062,3.062,0,0,0-2.155,3.747l.088.328c.012.046.025.092.039.137.007.024.015.047.022.07l.021.066c.011.033.023.068.035.1l.011.033c.016.044.032.087.049.13,0,0,0,0,0,0a14.628,14.628,0,0,0,2.619,3.752,29.552,29.552,0,0,0,2.516,2.535h0a29.592,29.592,0,0,0,2.516-2.534,12.31,12.31,0,0,0,2.8-4.291l.087-.328A3.061,3.061,0,0,0,666.755,3647.853Z" transform="translate(-657.999 -3647.767)"/>
</svg>
