<svg xmlns="http://www.w3.org/2000/svg" width="21.304" height="19.546" viewBox="0 0 21.304 19.546"><defs><style>.a{fill:#ff8392;}</style></defs><g transform="translate(0 0)"><path class="a" d="M15.446,17.6a6.392,6.392,0,0,0-4.794,2.221A6.392,6.392,0,0,0,5.859,17.6,5.8,5.8,0,0,0,0,23.459c0,4.021,3.622,7.307,9.108,12.287l1.545,1.4,1.545-1.4c5.486-4.98,9.108-8.266,9.108-12.287A5.8,5.8,0,0,0,15.446,17.6ZM10.764,34.169l-.112.1-.112-.1c-5.065-4.6-8.41-7.632-8.41-10.711A3.647,3.647,0,0,1,5.859,19.73a4.16,4.16,0,0,1,3.8,2.514h1.987a4.173,4.173,0,0,1,3.8-2.514,3.647,3.647,0,0,1,3.728,3.728C19.174,26.537,15.829,29.573,10.764,34.169Z" transform="translate(0 -17.6)"/></g></svg>