<svg id="Layer_1" data-name="Layer 1" xmlns="http://www.w3.org/2000/svg" viewBox="0 0 50.6 56.69"><defs><style>.cls-1{fill-rule:evenodd;}</style></defs><path id="Path_42734" data-name="Path 42734" class="cls-1" d="M25.29,7.59a79.2,79.2,0,0,1,10.1.28,13.13,13.13,0,0,1,4.76.84,9.81,9.81,0,0,1,4.77,4.78,12.93,12.93,0,0,1,.84,4.77c0,2.52.28,3.36.28,10.09a75.69,75.69,0,0,1-.28,10.1,13,13,0,0,1-.84,4.77A9.77,9.77,0,0,1,40.15,48a12.72,12.72,0,0,1-4.76.84c-2.53,0-3.37.29-10.1.29a77.2,77.2,0,0,1-10.09-.29A12.89,12.89,0,0,1,10.44,48a9.81,9.81,0,0,1-4.77-4.76,13,13,0,0,1-.84-4.77c0-2.52-.28-3.37-.28-10.1a77.25,77.25,0,0,1,.28-10.09,13.08,13.08,0,0,1,.83-4.76,10.15,10.15,0,0,1,2-2.81,4.73,4.73,0,0,1,2.82-2,13.14,13.14,0,0,1,4.77-.84A79,79,0,0,1,25.3,7.59m0-4.49a81.75,81.75,0,0,0-10.38.29A17.11,17.11,0,0,0,8.75,4.51a10.81,10.81,0,0,0-4.49,2.8A11.07,11.07,0,0,0,1.45,11.8,12.83,12.83,0,0,0,.33,18,83.48,83.48,0,0,0,.05,28.34,83.75,83.75,0,0,0,.33,38.73,17.55,17.55,0,0,0,1.45,44.9a11.07,11.07,0,0,0,2.81,4.49,10.89,10.89,0,0,0,4.49,2.79,17.11,17.11,0,0,0,6.17,1.12,81.75,81.75,0,0,0,10.38.28,81.9,81.9,0,0,0,10.39-.28,17.15,17.15,0,0,0,6.17-1.12,11.78,11.78,0,0,0,7.29-7.29,17.55,17.55,0,0,0,1.12-6.17c0-2.8.28-3.65.28-10.38A83.75,83.75,0,0,0,50.27,18a17.55,17.55,0,0,0-1.12-6.17,11.07,11.07,0,0,0-2.81-4.49,10.93,10.93,0,0,0-4.5-2.78,17.11,17.11,0,0,0-6.17-1.12A83.65,83.65,0,0,0,25.29,3.1m0,12.34a12.7,12.7,0,0,0-12.9,12.49v.41a12.9,12.9,0,1,0,12.9-12.9m0,21.32a8.27,8.27,0,0,1-8.41-8.13v-.28A8.27,8.27,0,0,1,25,19.93h.29a8.27,8.27,0,0,1,8.42,8.12v.29a8.27,8.27,0,0,1-8.12,8.42h-.3m13.46-25a3.08,3.08,0,1,0,3.08,3.08,3.11,3.11,0,0,0-3.08-3.08"/></svg>