<svg id="Layer_1" data-name="Layer 1" xmlns="http://www.w3.org/2000/svg" viewBox="0 0 50.6 56.69"><defs><style>.cls-1{fill:#ff8392;}</style></defs><g id="location_on" data-name="location on"><path id="Icon-2" class="cls-1" d="M25.3,56.69h0a131.09,131.09,0,0,1-9.92-12.84c-4.54-6.71-9.92-16.32-9.92-24a19.84,19.84,0,0,1,39.68,0c0,7.69-5.38,17.29-9.92,24A129.57,129.57,0,0,1,25.3,56.69Zm0-51A14.19,14.19,0,0,0,11.13,19.84c0,8.85,9.92,22.53,14.17,28,4.25-5.4,14.17-18.94,14.17-28A14.19,14.19,0,0,0,25.3,5.67Z"/><circle id="Icon-3" class="cls-1" cx="25.3" cy="19.84" r="7.09"/></g></svg>