<?xml version="1.0" encoding="utf-8"?>
<!-- Generator: Adobe Illustrator 25.0.1, SVG Export Plug-In . SVG Version: 6.00 Build 0)  -->
<svg version="1.1" fill="#FFF" id="Layer_1" xmlns="http://www.w3.org/2000/svg" xmlns:xlink="http://www.w3.org/1999/xlink" x="0px" y="0px"
	 viewBox="0 0 468.98 520.03" style="enable-background:new 0 0 468.98 520.03;" xml:space="preserve">
<path id="Path_35388" d="M421.81,207.71c-14.46-7.7-30.52-11.91-46.9-12.29c-18.33-0.1-36.46,3.88-53.06,11.64
	c-19.84,9.45-37.86,22.31-53.24,38.01c-26.03-42.63-56.02-69.42-89.14-79.61c-24.13-8.04-50.63-4.37-71.68,9.91
	c-12.92,9.97-22.3,23.83-26.77,39.52c-4.47,16.77-5.13,34.33-1.93,51.39c2.17,13.89,5.87,27.5,11.04,40.57
	c8.19,21.83,18.5,42.81,30.76,62.64c10.36,17.12,23.07,32.7,37.76,46.28c14.23,13.83,32.09,23.36,51.51,27.49
	c14.7,2.7,29.84,1.55,43.96-3.33c9.63-3.38,18.64-8.33,26.67-14.64c21.39-15.86,36.83-38.44,43.84-64.13
	c3.38-13.3-4.33-26.9-17.48-30.84c-6.21-1.85-12.91-1.07-18.52,2.15c-6.06,3.21-10.54,8.77-12.38,15.38
	c-0.89,3.25-1.96,6.44-3.23,9.56c-6.66,16.19-19.71,28.91-36.07,35.16c-11.81,3.51-24.58,1.29-34.51-5.99
	c-15.54-11.13-28.49-25.48-37.98-42.07c-18.65-27.38-31.09-58.5-36.46-91.2c-1.02-8.04-2.13-27.74,9.69-37.2
	c6.13-4.46,13.88-6.08,21.28-4.42c23.28,4.22,45.23,23.8,67.12,59.92c4.92,8.12,9.84,17.16,15.03,27.6
	c3.43,6.59,9.89,11.08,17.26,12c8.07,1.38,16.31-1.18,22.18-6.88l3.14-3.26c9.56-9.93,19.46-20.22,30.02-29.41
	c14.35-13.32,32.26-22.18,51.56-25.5c14.1-1.95,28.36,2.27,39.13,11.58c9.39,8.48,14.61,20.64,14.28,33.29
	c-0.43,43.02-32.87,81.71-61.07,110.6c-93.97,96.26-170.71,65.02-192.03,53.16c-47.38-26.4-75.6-76.5-90.94-113.81
	c-10.82-26.05-18.41-53.34-22.59-81.24c-7.54-48.87,3.45-98.8,30.81-139.99c16.3-24.57,39.53-43.75,66.74-55.1
	c14.66-5.67,30.55-7.43,46.1-5.1c-9.24,18.74-12.51,39.85-9.37,60.51c2.93,15.61,11.82,29.47,24.78,38.64
	c14.94,10.65,33.59,14.71,51.61,11.23c17.75-3.38,33.11-14.41,41.98-30.15c10.18-16.94,12.51-37.47,6.37-56.26
	c-4.5-12.48-11.71-23.8-21.13-33.15l1.82,0.14c31.13,2.55,51.94,35.7,51.8,65.1c0.23,13.75,11.33,24.84,25.08,25.07
	c6.32,0.21,12.44-2.2,16.92-6.66c5.08-4.8,8.04-11.44,8.2-18.44c-0.02-18.51-4.09-36.78-11.93-53.55
	c-8.14-16.98-20.51-31.59-35.93-42.4c-15-10.66-32.51-17.24-50.82-19.12c-17.98-1.83-36.1,1.48-52.27,9.55
	c-3.63,1.73-7.13,3.74-10.45,6c-36.28-11.29-75.44-8.94-110.12,6.62C92.27,36.5,66.25,57.73,46.68,84.36
	c-18.96,25.05-32.52,53.77-39.82,84.32c-16.03,66.05-3.68,145.34,33.86,217.6c31.87,61.37,77.77,105.58,129.16,124.47
	c17.44,6.26,35.84,9.4,54.36,9.27c18.21-0.06,36.31-2.72,53.76-7.9c34.67-11.48,66.55-30.11,93.58-54.68
	c23.58-20.21,44.33-43.5,61.69-69.24c22.05-28.72,34.54-63.64,35.7-99.84C468.97,254.93,450.94,224.1,421.81,207.71z M264.03,107.93
	c-1.15,8.19-8.72,13.9-16.92,12.75c-0.41-0.06-0.81-0.13-1.21-0.22c-3.83-0.8-7.13-3.21-9.06-6.6c-2.04-4.34-2.66-9.22-1.77-13.93
	c0.81-5.46,2.4-10.78,4.73-15.78c1.16-2.55,2.41-5.18,3.82-7.74c1.31,0.79,2.57,1.67,3.76,2.64l0.84,0.62
	C258.09,85.65,264.1,96.38,264.03,107.93z"/>
</svg>
