<svg xmlns="http://www.w3.org/2000/svg" fill="#FFF" width="179.363" height="71.261" viewBox="0 0 179.363 71.261">
  <g id="Group_1" data-name="Group 1" transform="translate(-329.024 -283.604)">
    <path id="Path_1" data-name="Path 1" d="M357.246,317.381a2.319,2.319,0,1,0-2.739-1.8A2.319,2.319,0,0,0,357.246,317.381Z"/>
    <path id="Path_2" data-name="Path 2" d="M361.039,332.809a2.32,2.32,0,1,0,2.739,1.805A2.319,2.319,0,0,0,361.039,332.809Z"/>
    <path id="Path_3" data-name="Path 3" d="M367.256,332.809a2.32,2.32,0,1,0,2.739,1.805A2.321,2.321,0,0,0,367.256,332.809Z"/>
    <path id="Path_4" data-name="Path 4" d="M421.367,312.463a9.463,9.463,0,0,0-6.448,1.881,12.246,12.246,0,0,0-3.637,6.064,4.7,4.7,0,0,1-2.786,3c-.762.351-2.528.932-2.672-.411a102.587,102.587,0,0,1,.017-15.689,2.315,2.315,0,0,0-2.28-2.537A2.4,2.4,0,0,0,401.219,307a129.336,129.336,0,0,0-.225,14.82c.318,3.839,1,7.428,3.8,7.7,2.288.22,5.086-1.507,7.177-3.294a10.73,10.73,0,0,0,3.6,4.054,10.928,10.928,0,0,0,12.752-1.267,9.178,9.178,0,0,0,2.523-4.981,9.532,9.532,0,0,0,.129-1.441,10.071,10.071,0,0,0-2.244-6.484A10.453,10.453,0,0,0,421.367,312.463Zm-.192,14.83c-2.939,0-5.76-2.162-5.76-5.039,0-1.039.657-4.824,5.647-5.038a5.241,5.241,0,0,1,5.326,3.75,3.064,3.064,0,0,1,.074.3v.011a4.97,4.97,0,0,1,.1.976A5.181,5.181,0,0,1,421.175,327.293Z"/>
    <path id="Path_5" data-name="Path 5" d="M389.186,312.546a9.707,9.707,0,0,0-9.66,6.055c-1.219,3.278-2.772,5.147-6.388,5.629a21.451,21.451,0,0,1-.164-5.111c0-.052.008-.1.008-.157.007-.133.011-.249.019-.393a2.406,2.406,0,0,0-1.93-2.7,2.318,2.318,0,0,0-2.526,2.082c-.006.06-.011.114-.017.17a2.325,2.325,0,0,0-.117.354c-.977,4.408-4.042,6.462-4.936,6.462-.6,0-1.869-1.045-2.919-3.925a2.523,2.523,0,0,0-4.931.526,12.709,12.709,0,0,1-22.5,8.1,2.315,2.315,0,0,0-3.566,2.953,17.322,17.322,0,0,0,29.59-5.009,6.018,6.018,0,0,0,4.329,1.984,8.082,8.082,0,0,0,5.434-2.525c.284,1.465.886,2.348,2.515,2.505,2.531.243,5.9-1.785,8.176-3.679a10.941,10.941,0,0,0,3.791,4.409,10.928,10.928,0,0,0,12.752-1.267,9.177,9.177,0,0,0,2.522-4.981,9.533,9.533,0,0,0,.13-1.441,10.072,10.072,0,0,0-2.245-6.484A10.205,10.205,0,0,0,389.186,312.546ZM389,327.293c-2.939,0-5.76-2.162-5.76-5.039,0-1.039.657-4.824,5.647-5.038a5.242,5.242,0,0,1,5.326,3.75c.031.1.053.2.074.3v.011a4.969,4.969,0,0,1,.1.976A5.18,5.18,0,0,1,389,327.293Z"/>
    <path id="Path_6" data-name="Path 6" d="M501.977,312.161a14.188,14.188,0,0,0-6.391-1.673,17.027,17.027,0,0,0-7.24,1.588,25.636,25.636,0,0,0-7.4,5.314c-2.831-4.674-6.867-9.366-12.267-11.026a11.063,11.063,0,0,0-9.741,1.342,10.373,10.373,0,0,0-3.63,5.373,16.024,16.024,0,0,0-.262,7.01,25.908,25.908,0,0,0,1.511,5.551,49.214,49.214,0,0,0,4.217,8.589,29.466,29.466,0,0,0,5.17,6.334,14.5,14.5,0,0,0,7.016,3.75,11.834,11.834,0,0,0,5.984-.453,12.681,12.681,0,0,0,3.629-1.993,16.315,16.315,0,0,0,5.984-8.749,3.321,3.321,0,1,0-6.4-1.765,12.135,12.135,0,0,1-.448,1.329,8.885,8.885,0,0,1-5.042,4.908,5.607,5.607,0,0,1-4.857-.838,18.286,18.286,0,0,1-5.259-5.816,31.637,31.637,0,0,1-5.033-12.591c-.222-1.731-.1-4.048,1.379-5.231a3.787,3.787,0,0,1,3.027-.634c4.141.75,7.28,4.934,9.315,8.29.749,1.235,1.43,2.509,2.071,3.8a3.347,3.347,0,0,0,5.216.672c1.483-1.538,2.954-3.1,4.569-4.5a13.864,13.864,0,0,1,7.158-3.53c3.97-.477,7.527,2.175,7.486,6.3-.06,5.924-4.525,11.29-8.435,15.3-6.747,6.912-17.094,12.6-26.555,7.331-5.944-3.311-10.031-9.554-12.559-15.712a47.378,47.378,0,0,1-3.115-11.2,27.448,27.448,0,0,1,4.263-19.349,20.551,20.551,0,0,1,9.236-7.622,12.591,12.591,0,0,1,6.537-.686l.038.006a13.95,13.95,0,0,0-1.354,8.4,8.325,8.325,0,0,0,3.359,5.231,9.12,9.12,0,0,0,7,1.521c5.19-.893,8.233-6.89,6.55-11.713a12.279,12.279,0,0,0-3.11-4.746c.2.005.391.019.587.035,4.4.359,7.259,5.023,7.241,9.081a3.321,3.321,0,1,0,6.642,0,17.224,17.224,0,0,0-1.631-7.308,15.013,15.013,0,0,0-4.9-5.781,14.585,14.585,0,0,0-6.926-2.607,12.949,12.949,0,0,0-7.12,1.3,10.912,10.912,0,0,0-1.473.852,21.227,21.227,0,0,0-15.107.884,26.944,26.944,0,0,0-10.345,8.441,31.137,31.137,0,0,0-5.451,11.545c-2.411,9.937,0,20.889,4.645,29.83,3.818,7.347,9.754,14.135,17.687,17.051a23.707,23.707,0,0,0,14.787.184c4.969-1.46,8.887-4.258,12.821-7.495a47.961,47.961,0,0,0,8.457-9.495c2.78-3.957,4.964-8.724,4.883-13.652A12.6,12.6,0,0,0,501.977,312.161Zm-25.743-14.947a8.006,8.006,0,0,1,.66-2.207c.184-.4.375-.8.6-1.184a5.771,5.771,0,0,1,.762.525c1.2.985,2.479,2.3,2.217,4.005a2.188,2.188,0,0,1-2.647,1.827,2.018,2.018,0,0,1-1.332-.971A3.306,3.306,0,0,1,476.234,297.214Z"/>
  </g>
</svg>
