<svg xmlns="http://www.w3.org/2000/svg" width="223.216" height="35.795" viewBox="0 0 223.216 35.795"><defs><style>.a{fill:#fff;}</style></defs><path class="a" d="M265.713,24.81a18.09,18.09,0,0,0-17.8,15.986,3.624,3.624,0,0,0-.077.719l0,.163c-.015.368-.026.694-.026,1.032a17.892,17.892,0,0,0,31.461,11.665,3.183,3.183,0,1,0-4.828-4.149,11.526,11.526,0,0,1-19.737-4.052l-.273-.862.895.117a80.6,80.6,0,0,0,25.654-.791,3.176,3.176,0,0,0,2.568-3.389,18.025,18.025,0,0,0-17.841-16.44m10.173,14.227a74.3,74.3,0,0,1-10.168.7,74.057,74.057,0,0,1-10.188-.7l-.745-.1.293-.692a11.525,11.525,0,0,1,21.256,0l.295.692ZM315.12,56.685a3.184,3.184,0,0,1-3.181,3.183H289.716a3.182,3.182,0,0,1-2.538-5.1l17.04-22.636H289.945a3.183,3.183,0,1,1,0-6.365h20.663a3.182,3.182,0,0,1,2.54,5.1L296.105,53.5h15.834a3.184,3.184,0,0,1,3.181,3.183M241.68,39.2v18.22a3.182,3.182,0,0,1-6.363,0V39.2a8.031,8.031,0,0,0-16.063,0v18.22a3.182,3.182,0,0,1-6.363,0V39.2a8.031,8.031,0,0,0-16.063,0v18.22a3.182,3.182,0,0,1-6.363,0V39.2c0-3.838-.322-5.221-1.5-6.433a3.644,3.644,0,0,1-.838-3.554,3.5,3.5,0,0,1,3.882-2.385,5.5,5.5,0,0,1,2.584,1.552l.8.792.4-.322a15.2,15.2,0,0,1,10.422-3.969c4.5,0,7.836,3.018,9.423,4.817l.432.489.43-.489a14.374,14.374,0,0,1,25.176,9.5m-96.068,0v18.22a3.182,3.182,0,0,1-6.363,0V39.2a8.031,8.031,0,0,0-16.063,0v18.22a3.182,3.182,0,0,1-6.363,0V39.2a8.03,8.03,0,0,0-16.061,0v18.22a3.183,3.183,0,0,1-6.365,0V39.2c0-3.838-.322-5.221-1.5-6.433a3.649,3.649,0,0,1-.838-3.554,3.5,3.5,0,0,1,3.88-2.385,5.488,5.488,0,0,1,2.588,1.552l.8.792.4-.322a15.2,15.2,0,0,1,10.422-3.969c4.5,0,7.835,3.018,9.423,4.817l.432.489.43-.489a14.374,14.374,0,0,1,25.176,9.5m36.226-11.211V45.56a15.046,15.046,0,0,1-30.092,0V27.993a3.182,3.182,0,1,1,6.363,0V45.56a8.682,8.682,0,0,0,17.364,0V27.993a3.183,3.183,0,0,1,6.365,0" transform="translate(-91.904 -24.81)"/></svg>