<?xml version="1.0" encoding="utf-8"?>
<!-- Generator: Adobe Illustrator 25.0.1, SVG Export Plug-In . SVG Version: 6.00 Build 0)  -->
<svg version="1.1" id="Layer_1" fill="#FFF" xmlns="http://www.w3.org/2000/svg" xmlns:xlink="http://www.w3.org/1999/xlink" x="0px" y="0px"
	 viewBox="0 0 1920 520.03" style="enable-background:new 0 0 1920 520.03;" xml:space="preserve">
<path id="Path_35388" d="M421.81,207.71c-14.46-7.7-30.52-11.91-46.9-12.29c-18.33-0.1-36.46,3.88-53.06,11.64
	c-19.84,9.45-37.86,22.31-53.24,38.01c-26.03-42.63-56.02-69.42-89.14-79.61c-24.13-8.04-50.63-4.37-71.68,9.91
	c-12.92,9.97-22.3,23.83-26.77,39.52c-4.47,16.77-5.13,34.33-1.93,51.39c2.17,13.89,5.87,27.5,11.04,40.57
	c8.19,21.83,18.5,42.81,30.76,62.64c10.36,17.12,23.07,32.7,37.76,46.28c14.23,13.83,32.09,23.36,51.51,27.49
	c14.7,2.7,29.84,1.55,43.96-3.33c9.63-3.38,18.64-8.33,26.67-14.64c21.39-15.86,36.83-38.44,43.84-64.13
	c3.38-13.3-4.33-26.9-17.48-30.84c-6.21-1.85-12.91-1.07-18.52,2.15c-6.06,3.21-10.54,8.77-12.38,15.38
	c-0.89,3.25-1.96,6.44-3.23,9.56c-6.66,16.19-19.71,28.91-36.07,35.16c-11.81,3.51-24.58,1.29-34.51-5.99
	c-15.54-11.13-28.49-25.48-37.98-42.07c-18.65-27.38-31.09-58.5-36.46-91.2c-1.02-8.04-2.13-27.74,9.69-37.2
	c6.13-4.46,13.88-6.08,21.28-4.42c23.28,4.22,45.23,23.8,67.12,59.92c4.92,8.12,9.84,17.16,15.03,27.6
	c3.43,6.59,9.89,11.08,17.26,12c8.07,1.38,16.31-1.18,22.18-6.88l3.14-3.26c9.56-9.93,19.46-20.22,30.02-29.41
	c14.35-13.32,32.26-22.18,51.56-25.5c14.1-1.95,28.36,2.27,39.13,11.58c9.39,8.48,14.61,20.64,14.28,33.29
	c-0.43,43.02-32.87,81.71-61.07,110.6c-93.97,96.26-170.71,65.02-192.03,53.16c-47.38-26.4-75.6-76.5-90.94-113.81
	c-10.82-26.05-18.41-53.34-22.59-81.24c-7.54-48.87,3.45-98.8,30.81-139.99c16.3-24.57,39.53-43.75,66.74-55.1
	c14.66-5.67,30.55-7.43,46.1-5.1c-9.24,18.74-12.51,39.85-9.37,60.51c2.93,15.61,11.82,29.47,24.78,38.64
	c14.94,10.65,33.59,14.71,51.61,11.23c17.75-3.38,33.11-14.41,41.98-30.15c10.18-16.94,12.51-37.47,6.37-56.26
	c-4.5-12.48-11.71-23.8-21.13-33.15l1.82,0.14c31.13,2.55,51.94,35.7,51.8,65.1c0.23,13.75,11.33,24.84,25.08,25.07
	c6.32,0.21,12.44-2.2,16.92-6.66c5.08-4.8,8.04-11.44,8.2-18.44c-0.02-18.51-4.09-36.78-11.93-53.55
	c-8.14-16.98-20.51-31.59-35.93-42.4c-15-10.66-32.51-17.24-50.82-19.12c-17.98-1.83-36.1,1.48-52.27,9.55
	c-3.63,1.73-7.13,3.74-10.45,6c-36.28-11.29-75.44-8.94-110.12,6.62C92.27,36.5,66.25,57.73,46.68,84.36
	c-18.96,25.05-32.52,53.77-39.82,84.32c-16.03,66.05-3.68,145.34,33.86,217.6c31.87,61.37,77.77,105.58,129.16,124.47
	c17.44,6.26,35.84,9.4,54.36,9.27c18.21-0.06,36.31-2.72,53.76-7.9c34.67-11.48,66.55-30.11,93.58-54.68
	c23.58-20.21,44.33-43.5,61.69-69.24c22.05-28.72,34.54-63.64,35.7-99.84C468.97,254.93,450.94,224.1,421.81,207.71z M264.03,107.93
	c-1.15,8.19-8.72,13.9-16.92,12.75c-0.41-0.06-0.81-0.13-1.21-0.22c-3.83-0.8-7.13-3.21-9.06-6.6c-2.04-4.34-2.66-9.22-1.77-13.93
	c0.81-5.46,2.4-10.78,4.73-15.78c1.16-2.55,2.41-5.18,3.82-7.74c1.31,0.79,2.57,1.67,3.76,2.64l0.84,0.62
	C258.09,85.65,264.1,96.38,264.03,107.93z M1618.95,151.05c-55.54,0.52-102.02,42.29-108.45,97.46c-0.3,1.44-0.46,2.91-0.46,4.39
	v0.99c-0.1,2.23-0.15,4.23-0.15,6.29c-0.02,60.21,48.78,109.03,108.99,109.05c31.79,0.01,61.99-13.85,82.71-37.96
	c6.83-8.25,5.67-20.47-2.58-27.3c-8.04-6.65-19.89-5.75-26.84,2.03c-25.28,29.42-69.63,32.77-99.05,7.49
	c-9.94-8.54-17.29-19.69-21.22-32.18l-1.66-5.25l5.46,0.71c52.02,6.75,104.8,5.13,156.31-4.82c9.73-1.86,16.48-10.77,15.64-20.64
	C1722.72,194.83,1675.63,151.4,1618.95,151.05L1618.95,151.05z M1680.94,237.74c-41.15,5.71-82.89,5.71-124.04,0l-4.51-0.62
	l1.77-4.21c15.01-35.76,56.16-52.59,91.92-37.58c16.97,7.12,30.46,20.62,37.58,37.58l1.8,4.21L1680.94,237.74z M1920,345.27
	c-0.01,10.71-8.68,19.38-19.39,19.39h-135.4c-10.71,0-19.39-8.68-19.39-19.39c0-4.21,1.37-8.31,3.91-11.68l103.84-137.93h-86.98
	c-10.71,0-19.39-8.69-19.38-19.4c0-10.7,8.68-19.38,19.38-19.38h125.9c10.7-0.01,19.39,8.65,19.4,19.36c0,4.23-1.37,8.34-3.92,11.71
	l-103.83,137.93h96.46c10.7,0.01,19.37,8.68,19.39,19.38L1920,345.27z M1472.5,238.76v111.01c0.27,10.71-8.18,19.61-18.89,19.88
	c-10.71,0.27-19.61-8.18-19.88-18.89c-0.01-0.33-0.01-0.66,0-0.99V238.75c-0.03-27.02-21.96-48.91-48.99-48.87
	c-26.98,0.03-48.84,21.89-48.87,48.87v111.01c0,10.71-8.68,19.39-19.39,19.39c-10.71,0-19.39-8.68-19.39-19.39V238.75
	c-0.03-27.02-21.96-48.91-48.99-48.87c-26.98,0.03-48.84,21.89-48.87,48.87v111.01c0,10.71-8.68,19.39-19.39,19.39
	c-10.71,0-19.39-8.68-19.39-19.39V238.75c0-23.38-1.96-31.81-9.13-39.19c-5.46-5.79-7.41-14.06-5.1-21.67
	c3.23-10.01,13.26-16.17,23.65-14.53c6.03,1.62,11.48,4.9,15.75,9.46l4.87,4.83l2.45-1.98c17.33-15.84,40.03-24.5,63.5-24.22
	c22.39,1.29,43.21,11.93,57.37,29.32l2.64,2.97l2.63-2.97c31.9-36.35,87.23-39.96,123.59-8.06c18.98,16.66,29.85,40.7,29.81,65.96
	L1472.5,238.76z M887.16,238.76v111.01c0,10.71-8.69,19.39-19.4,19.38c-10.7,0-19.38-8.68-19.38-19.38V238.75
	c0-27.02-21.91-48.93-48.93-48.93c-27.02,0-48.93,21.91-48.93,48.93v111.01c0,10.71-8.69,19.39-19.4,19.38
	c-10.7,0-19.38-8.68-19.38-19.38V238.75c0-27.02-21.91-48.93-48.93-48.93s-48.93,21.91-48.93,48.93v111.01
	c0,10.71-8.69,19.39-19.4,19.38c-10.7,0-19.38-8.68-19.38-19.38V238.75c0-23.38-1.96-31.81-9.13-39.19
	c-5.45-5.79-7.39-14.06-5.1-21.67c3.22-10.02,13.26-16.19,23.65-14.53c6.03,1.62,11.49,4.89,15.76,9.45l4.88,4.83l2.45-1.98
	c17.33-15.84,40.03-24.5,63.5-24.22c22.39,1.29,43.21,11.93,57.37,29.32l2.63,2.97l2.64-2.97c31.9-36.35,87.23-39.96,123.59-8.06
	c18.98,16.66,29.85,40.7,29.81,65.96L887.16,238.76z M1107.89,170.45v107.09c0,50.63-41.05,91.68-91.68,91.68
	s-91.68-41.05-91.68-91.68V170.45c0-10.71,8.67-19.39,19.38-19.4c10.71,0,19.39,8.67,19.4,19.38c0,0,0,0.01,0,0.01v107.09
	c0,29.22,23.69,52.91,52.91,52.91c29.22,0,52.91-23.69,52.91-52.91V170.45c0-10.71,8.68-19.39,19.39-19.39
	c10.71,0,19.39,8.68,19.39,19.39l0,0H1107.89z"/>
</svg>
