<svg xmlns="http://www.w3.org/2000/svg" width="68.758" height="74.008" viewBox="0 0 68.758 74.008">
  <defs>
    <style>
      .cls-1 {
        fill: #75cbd8;
        fill-rule: evenodd;
      }
    </style>
  </defs>
  <g id="Group_17858" data-name="Group 17858" transform="translate(-162.073 -382.571)">
    <path id="Path_35410" data-name="Path 35410" class="cls-1" d="M210.193,458.205a25.667,25.667,0,1,0-25.666-25.667,25.688,25.688,0,0,0,25.666,25.667Z" transform="translate(-4.982 -5.392)"/>
    <g id="Group_17857" data-name="Group 17857" transform="translate(162.073 382.571)">
      <g id="Group_17852" data-name="Group 17852" transform="translate(24.354)">
        <path id="Path_35411" data-name="Path 35411" d="M199.744,399.658a53.9,53.9,0,0,1-2.2-8.021,38.9,38.9,0,0,1-.584-3.9,2.3,2.3,0,0,1,.031-1.065c.069-.125.538-.259.838-.327a10.791,10.791,0,0,1,5.553.24,4.239,4.239,0,0,1,1.862,1.25,4.5,4.5,0,0,1,.836,2.679c.055,2.834-1.348,5.468-1.744,8.242a1.844,1.844,0,0,0,1.246,2.193,1.8,1.8,0,0,0,2.193-1.246c.443-3.105,1.933-6,1.871-9.19a7.561,7.561,0,0,0-4.21-6.919,13.713,13.713,0,0,0-7.789-.822,4.96,4.96,0,0,0-3.667,2c-.933,1.47-.573,3.259-.352,4.875a54.265,54.265,0,0,0,2.676,10.956,1.829,1.829,0,0,0,2.193,1.246,1.8,1.8,0,0,0,1.246-2.193Z" transform="translate(-193.373 -382.571)"/>
      </g>
      <g id="Group_17853" data-name="Group 17853" transform="translate(20.799 15.73)">
        <path id="Path_35412" data-name="Path 35412" d="M208.839,404.095a36,36,0,0,0-7.685-1.252,19.771,19.771,0,0,0-6.787.564,7.684,7.684,0,0,0-4.87,3.9,8.031,8.031,0,0,0-.2,6.039c1.62,4.473,5.957,6.495,10.442,6.927,4.22.406,9.494-.208,11.924-4.149a8.774,8.774,0,0,0-2.165-11.433,1.8,1.8,0,0,0-2.44.64,1.827,1.827,0,0,0,.64,2.439c1.711,1.292,2.059,4.168,1.183,6.013-1.348,2.845-5.165,3.109-8.055,3-3.012-.117-6.443-1.049-7.9-3.947a4.825,4.825,0,0,1-.368-3.63,3.978,3.978,0,0,1,2.754-2.361,16.961,16.961,0,0,1,5.84-.437,31.447,31.447,0,0,1,6.737,1.125,1.785,1.785,0,0,0,.948-3.439Z" transform="translate(-188.805 -402.787)"/>
      </g>
      <g id="Group_17854" data-name="Group 17854" transform="translate(16.058 29.587)">
        <path id="Path_35413" data-name="Path 35413" d="M213.08,422.589a57.866,57.866,0,0,0-18.246-1.9,18.247,18.247,0,0,0-7.8,1.779,8.206,8.206,0,0,0-4.247,5.861,6.174,6.174,0,0,0,2.888,6.256c2.193,1.4,5.025,1.663,7.537,2.006a81.909,81.909,0,0,0,9.059.751c2.9.072,6.3.344,9.057-.738,4.632-1.82,6.678-8.053,3.829-12.211a1.828,1.828,0,0,0-2.44-.64,1.8,1.8,0,0,0-.64,2.439c1.554,2.268.785,5.946-1.9,7.058a9,9,0,0,1-3.06.5c-1.362.058-2.729.065-4.093.045q-3.745-.058-7.474-.473a34.6,34.6,0,0,1-6.64-1.16c-1.455-.463-2.8-1.4-2.64-3.093.407-4.22,5.894-4.684,9.124-4.84a54.621,54.621,0,0,1,16.745,1.8c2.219.593,3.166-2.846.948-3.438Z" transform="translate(-182.711 -420.596)"/>
      </g>
      <g id="Group_17855" data-name="Group 17855" transform="translate(9.476 42.222)">
        <path id="Path_35414" data-name="Path 35414" d="M186.532,438.556c-3.426-.176-7.246.078-9.911,2.51-2.172,1.983-3.14,5.622-1.659,8.273,1.923,3.442,6.561,3.133,9.942,3.31q6.273.327,12.557.343,6.377.016,12.751-.288c3.477-.167,7.183-.576,9.393-3.61a7.853,7.853,0,0,0,.263-8.849,8.05,8.05,0,0,0-8.324-3.21c-.943.221-1.84.653-2.768.936a28.57,28.57,0,0,1-3.2.775,35.128,35.128,0,0,1-6.114.507c-4.32.03-8.624-.453-12.933-.7-2.293-.13-2.285,3.437,0,3.566,6.5.366,13.014,1.229,19.49.151a28.679,28.679,0,0,0,4.714-1.194,6.211,6.211,0,0,1,3.381-.614,4.065,4.065,0,0,1,3.4,4.516c-.335,2.58-2.516,3.693-4.883,3.989a96.77,96.77,0,0,1-10.344.423,198.951,198.951,0,0,1-21.432-.56c-1.1-.1-2.477-.345-2.909-1.506a3.5,3.5,0,0,1,.518-2.95c1.615-2.524,5.456-2.389,8.062-2.255C188.826,442.239,188.819,438.672,186.532,438.556Z" transform="translate(-174.251 -436.833)"/>
      </g>
      <g id="Group_17856" data-name="Group 17856" transform="translate(0 54.661)">
        <path id="Path_35415" data-name="Path 35415" d="M177.19,452.868a28.217,28.217,0,0,0-7.79.629c-2.074.464-4.462,1.087-5.934,2.731-3.308,3.694-.1,8.693,3.159,11.05,3.389,2.449,7.7,3.2,11.752,3.743a135.443,135.443,0,0,0,15.5,1.119c5.188.093,10.378-.062,15.558-.352,4.143-.231,8.8-.283,12.146-3.095a8.39,8.39,0,0,0-3.722-14.61c-2.3-.471-4.666.167-6.972.349-11.249.885-22.487-.817-33.693-1.564-2.291-.153-2.281,3.414,0,3.566,8.925.594,17.821,1.77,26.777,1.8,2.187.009,4.375-.052,6.556-.213q1.528-.112,3.051-.294a14.053,14.053,0,0,1,2.984-.261,4.876,4.876,0,0,1,4.106,6.475c-1.085,3.221-5.033,3.836-7.959,4.071-4.492.36-9.015.515-13.519.57-4.551.055-9.106-.048-13.645-.388a63.909,63.909,0,0,1-12.011-1.689,15.078,15.078,0,0,1-5.152-2.344c-1.317-.99-2.77-2.6-2.7-4.368.074-1.881,2.5-2.323,3.954-2.691a24.737,24.737,0,0,1,7.558-.672C179.482,456.568,179.475,453,177.19,452.868Z" transform="translate(-162.073 -452.82)"/>
      </g>
    </g>
  </g>
</svg>
