<svg xmlns="http://www.w3.org/2000/svg" width="63.803" height="61.024" viewBox="0 0 63.803 61.024">
  <defs>
    <style>
      .cls-1 {
        fill: #ffd1b2;
        fill-rule: evenodd;
      }
    </style>
  </defs>
  <g id="Group_18347" data-name="Group 18347" transform="translate(-603.637 -259.353)">
    <g id="Group_17859" data-name="Group 17859" transform="translate(621.033 271.207)">
      <path id="Path_35416" data-name="Path 35416" class="cls-1" d="M651.569,322.638a23.224,23.224,0,1,0-23.224-23.224,23.243,23.243,0,0,0,23.224,23.224Z" transform="translate(-628.345 -276.189)"/>
    </g>
    <g id="Group_17860" data-name="Group 17860" transform="translate(606.194 259.353)">
      <path id="Path_35417" data-name="Path 35417" d="M635.462,320.376c-8.457,0-17.586-1.467-23.425-8.088a19.2,19.2,0,0,1,6.295-30.113c-2.969-6.725-1.06-15.242,4.82-19.738a15.931,15.931,0,0,1,11.816-2.924,15.606,15.606,0,0,1,10.372,5.877,15.325,15.325,0,0,1,2.6,11.919A16.061,16.061,0,0,1,645.754,283a19.4,19.4,0,0,0,9.882-5.15,2.258,2.258,0,0,1,3.658.681c2.406,5.4,5.134,11.525,5.752,18.016.719,7.566-1.751,14.489-6.608,18.517-4.9,4.067-11.547,4.781-17.388,5.129C639.252,320.3,637.373,320.376,635.462,320.376Zm-2.846-56.507a11.056,11.056,0,0,0-6.719,2.155c-4.7,3.592-5.854,11.09-2.478,16.047a2.258,2.258,0,0,1-1.215,3.434,14.7,14.7,0,0,0-6.779,23.8c5.867,6.651,16.631,6.905,25.355,6.384,5.362-.32,10.92-.9,14.773-4.1,4.362-3.62,5.44-9.922,4.995-14.613-.453-4.762-2.213-9.36-4.153-13.826a24.08,24.08,0,0,1-20.533,3.951,2.258,2.258,0,1,1,1.2-4.355,17.662,17.662,0,0,0,2.452.489,10.66,10.66,0,0,0,3.985-6.728,10.8,10.8,0,0,0-1.771-8.4,11.069,11.069,0,0,0-7.376-4.112A12.555,12.555,0,0,0,632.616,263.869Z" transform="translate(-607.269 -259.352)"/>
    </g>
    <g id="Group_17861" data-name="Group 17861" transform="translate(603.637 271.958)">
      <path id="Path_35418" data-name="Path 35418" d="M613.626,290.654c-.077,0-.154,0-.232-.011a11.161,11.161,0,0,1-9.74-9.529,2.26,2.26,0,0,1,2.395-2.533,24.787,24.787,0,0,0,9.441-1.207,2.259,2.259,0,0,1,1.43,4.285,29.374,29.374,0,0,1-7.815,1.46,6.7,6.7,0,0,0,4.748,3.031,2.258,2.258,0,0,1-.227,4.505Z" transform="translate(-603.637 -277.256)"/>
    </g>
    <g id="Group_17862" data-name="Group 17862" transform="translate(621.454 293.73)">
      <path id="Path_35419" data-name="Path 35419" d="M643.761,323.561c-.113,0-.227,0-.341,0a16.031,16.031,0,0,1-11.1-4.856,11.6,11.6,0,0,1-3.376-8.333,2.259,2.259,0,1,1,4.515.137,7.116,7.116,0,0,0,2.131,5.081,11.581,11.581,0,0,0,7.908,3.455c5.477.122,10.653-2.873,15.412-6.1a2.259,2.259,0,1,1,2.535,3.739C656.418,320.093,650.4,323.561,643.761,323.561Z" transform="translate(-628.943 -308.18)"/>
    </g>
  </g>
</svg>
