<svg xmlns="http://www.w3.org/2000/svg" xmlns:xlink="http://www.w3.org/1999/xlink" width="400" height="400" viewBox="0 0 400 400">
  <defs>
    <clipPath id="clip-Artboard_1">
      <rect width="400" height="400"/>
    </clipPath>
  </defs>
  <g id="Artboard_1" data-name="Artboard – 1" clip-path="url(#clip-Artboard_1)">
    <rect width="400" height="400" fill="#fff"/>
    <rect id="Rectangle_3103" data-name="Rectangle 3103" width="400" height="400" fill="#ddd"/>
    <path id="Icon_awesome-images" data-name="Icon awesome-images" d="M76.53,63.474v2.551a7.653,7.653,0,0,1-7.653,7.653H7.653A7.653,7.653,0,0,1,0,66.025V25.209a7.653,7.653,0,0,1,7.653-7.653H10.2V50.719A12.769,12.769,0,0,0,22.959,63.474ZM91.836,50.719V9.9A7.653,7.653,0,0,0,84.183,2.25H22.959A7.653,7.653,0,0,0,15.306,9.9V50.719a7.653,7.653,0,0,0,7.653,7.653H84.183A7.653,7.653,0,0,0,91.836,50.719ZM40.816,17.556A7.653,7.653,0,1,1,33.163,9.9,7.653,7.653,0,0,1,40.816,17.556ZM25.51,40.515l8.851-8.851a1.913,1.913,0,0,1,2.706,0l6.3,6.3L64.973,16.358a1.913,1.913,0,0,1,2.706,0L81.632,30.311V48.168H25.51Z" transform="translate(154.082 162.036)" fill="#8e8d8d"/>
  </g>
</svg>
