<svg id="Layer_1" data-name="Layer 1" xmlns="http://www.w3.org/2000/svg" viewBox="0 0 50.6 56.69"><defs><style>.cls-1{fill:#07abb9;}</style></defs><path id="Icon-4" class="cls-1" d="M47.79,53.65A47.8,47.8,0,0,1,0,5.85H0A2.81,2.81,0,0,1,2.81,3h9.84a2.81,2.81,0,0,1,2.81,2.81,32,32,0,0,0,1.61,10,2.83,2.83,0,0,1-.71,2.87l-6.18,6.18A42.83,42.83,0,0,0,28.7,43.47l6.19-6.19a2.85,2.85,0,0,1,2-.81,2.18,2.18,0,0,1,.87.14,32.19,32.19,0,0,0,10,1.6A2.81,2.81,0,0,1,50.6,41v9.82A2.81,2.81,0,0,1,47.79,53.65ZM37.67,42.46,34.3,45.8A43.3,43.3,0,0,0,45,47.91V43.73a36.34,36.34,0,0,1-7.31-1.27Zm-32-33.8h0A41.59,41.59,0,0,0,7.84,19.32L11.22,16A34.71,34.71,0,0,1,10,8.67Z"/></svg>