<svg xmlns="http://www.w3.org/2000/svg" width="12.995" height="18.653" viewBox="0 0 12.995 18.653"><defs><style>.a{fill:#57a5e9;}</style></defs><g transform="translate(-77.598 0)"><path class="a" d="M90.2,4.785,88.975,3.758,88.7,2.184a1.092,1.092,0,0,0-1.077-.9h-1.6L84.793.256a1.092,1.092,0,0,0-1.406,0L82.163,1.286h-1.6a1.092,1.092,0,0,0-1.076.9l-.276,1.575L77.988,4.8a1.092,1.092,0,0,0-.243,1.385l.8,1.384L78.27,9.14a1.092,1.092,0,0,0,.7,1.217l1.348.489.005,6.713a1.093,1.093,0,0,0,1.717.9l2.038-1.415,2.038,1.415a1.094,1.094,0,0,0,1.717-.9v-6.7l1.388-.507a1.092,1.092,0,0,0,.7-1.218l-.279-1.574.8-1.385A1.092,1.092,0,0,0,90.2,4.785ZM84.394,15.928a.547.547,0,0,0-.624,0l-2.349,1.631h0l0-5.082a1.091,1.091,0,0,0,1.182.29l1.5-.548,1.5.545a1.092,1.092,0,0,0,1.139-.247v5.043ZM88.7,7.009a1.1,1.1,0,0,0-.129.737L88.85,9.32l-1.5.548a1.1,1.1,0,0,0-.477.343l-.017.022a1.083,1.083,0,0,0-.078.116l-.8,1.386h0l-1.5-.545a1.1,1.1,0,0,0-.748,0l-1.5.548-.8-1.384a1.091,1.091,0,0,0-.154-.2l-.016-.017a1.1,1.1,0,0,0-.4-.259l-1.5-.545.276-1.575a1.1,1.1,0,0,0-.131-.737l-.8-1.384L79.916,4.6a1.1,1.1,0,0,0,.373-.648l.276-1.575h1.6a1.1,1.1,0,0,0,.7-.257l1.224-1.029,1.226,1.027a1.1,1.1,0,0,0,.7.255h1.6L87.9,3.949a1.1,1.1,0,0,0,.375.648L89.5,5.623Z" transform="translate(0)"/><path class="a" d="M172.478,93.29a3.153,3.153,0,1,0,3.153,3.153A3.157,3.157,0,0,0,172.478,93.29Zm0,5.213a2.06,2.06,0,1,1,2.06-2.06A2.062,2.062,0,0,1,172.478,98.5Z" transform="translate(-88.383 -89.889)"/></g></svg>