<svg xmlns="http://www.w3.org/2000/svg" width="20.723" height="20.723" viewBox="0 0 20.723 20.723">
  <defs>
    <style>
      .cls-1 {
        fill: none;
        stroke: #fff;
        stroke-width: 1.5px;
      }
    </style>
  </defs>
  <path id="Icon_material-local-offer" data-name="Icon material-local-offer" class="cls-1" d="M21.656,12.208l-8.65-8.65A1.91,1.91,0,0,0,11.65,3H4.922A1.928,1.928,0,0,0,3,4.922V11.65a1.918,1.918,0,0,0,.567,1.365l8.65,8.65a1.91,1.91,0,0,0,1.355.557,1.879,1.879,0,0,0,1.355-.567l6.728-6.728a1.879,1.879,0,0,0,.567-1.355,1.941,1.941,0,0,0-.567-1.365ZM6.364,7.806A1.442,1.442,0,1,1,7.806,6.364,1.44,1.44,0,0,1,6.364,7.806Z" transform="translate(-2.25 -2.25)"/>
</svg>
