<svg xmlns="http://www.w3.org/2000/svg" width="17.401" height="14.614" viewBox="0 0 17.401 14.614"><defs><style>.a{fill:#57a5e9;}</style></defs><path class="a" d="M15.114,41H2.287A2.29,2.29,0,0,0,0,43.287v7.321a2.29,2.29,0,0,0,2.209,2.285v1.832a.89.89,0,0,0,.889.889H7.234a.89.89,0,0,0,.889-.889V52.9h6.991A2.29,2.29,0,0,0,17.4,50.608V43.287A2.29,2.29,0,0,0,15.114,41ZM2.287,42.02H15.114a1.269,1.269,0,0,1,1.268,1.268v.432H1.02v-.432A1.269,1.269,0,0,1,2.287,42.02Zm4,8.5H4.044v-.578a.851.851,0,0,1,.85-.85h.544a.851.851,0,0,1,.85.85ZM7.1,54.595H3.229V51.536H7.1Zm8.011-2.719H8.123v-.471a.89.89,0,0,0-.816-.885v-.581a1.871,1.871,0,0,0-1.869-1.869H4.894a1.871,1.871,0,0,0-1.869,1.869v.581a.89.89,0,0,0-.816.885v.468a1.269,1.269,0,0,1-1.19-1.265v-5.87H16.382v5.87a1.269,1.269,0,0,1-1.268,1.268Z" transform="translate(0 -41)"/><path class="a" d="M70.948,185H65.51a.51.51,0,1,0,0,1.02h5.438a.51.51,0,1,0,0-1.02Z" transform="translate(-62.791 -180.106)"/><path class="a" d="M293.123,185h-2.877A1.248,1.248,0,0,0,289,186.247v.7a1.248,1.248,0,0,0,1.247,1.247h2.877a1.248,1.248,0,0,0,1.247-1.247v-.7A1.248,1.248,0,0,0,293.123,185Zm.227,1.948a.227.227,0,0,1-.227.227h-2.877a.227.227,0,0,1-.227-.227v-.7a.227.227,0,0,1,.227-.227h2.877a.227.227,0,0,1,.227.227Z" transform="translate(-279.178 -180.106)"/></svg>