<svg xmlns="http://www.w3.org/2000/svg" width="67.451" height="75.331" viewBox="0 0 67.451 75.331">
  <g id="Group_17843" data-name="Group 17843" transform="translate(-155.61 -129.856)">
    <path id="Path_35389" data-name="Path 35389" d="M196.372,193.039a25.05,25.05,0,1,0-25.049-25.049,25.07,25.07,0,0,0,25.049,25.049Z" transform="translate(-3.609 -2.986)" fill="#ff8392" fill-rule="evenodd"/>
    <path id="Path_35390" data-name="Path 35390" d="M220.038,152.093c-3.154-.686-6.241,1.8-7.622,4.717s-1.573,6.233-2.3,9.378c-2.858,12.395-15.445,21.966-28.11,20.785s-23.424-13.491-22.3-26.162a29.127,29.127,0,0,1,3.858-11.679c4.468-7.887,12.273-14.265,21.282-15.264a108.841,108.841,0,0,0-1.153,13.525,17.736,17.736,0,0,0,.8,6.786c1.751,4.558,6.811,7.153,11.685,7.453s9.649-1.253,14.284-2.787" transform="translate(-0.794 -0.803)" fill="none" stroke="#000" stroke-linecap="round" stroke-linejoin="round" stroke-width="6.416"/>
    <g id="Group_17838" data-name="Group 17838" transform="translate(183.952 130.528)">
      <path id="Path_35391" data-name="Path 35391" d="M194.985,134.707A3.931,3.931,0,0,1,198.211,136c1.017,1.4.712,3.6-1.369,3.91-2.491.374-1.6,3.9.555,4.1l.181,3.309a2.106,2.106,0,0,0,0,4.027c3.593,1.1.751,5.126-1.887,3.105-2.132-1.633-4.215,1.993-2.108,3.606,2.892,2.215,7.559,1.54,9.339-1.82,1.948-3.675-.57-7.8-4.234-8.919v4.027c6.748-2.028,5.564-10.866-1.291-11.513l.555,4.1a6.356,6.356,0,0,0,5.143-7.6c-.789-3.8-4.53-5.665-8.109-5.807-2.687-.106-2.683,4.07,0,4.177Z" transform="translate(-192.705 -130.528)"/>
    </g>
    <g id="Group_17839" data-name="Group 17839" transform="translate(166.082 184.874)">
      <path id="Path_35392" data-name="Path 35392" d="M184.611,202.4l-14.441,8.646c-2.3,1.379-.206,4.991,2.108,3.606l14.441-8.646c2.3-1.379.206-4.991-2.108-3.606Z" transform="translate(-169.173 -202.094)"/>
    </g>
    <g id="Group_17840" data-name="Group 17840" transform="translate(167.265 179.319)">
      <path id="Path_35393" data-name="Path 35393" d="M171.687,198.735c6.7,4.424,13.207,10.224,21.124,12.325,2.6.69,3.71-3.337,1.11-4.027-7.505-1.991-13.765-7.706-20.126-11.9-2.249-1.485-4.344,2.131-2.108,3.606Z" transform="translate(-170.731 -194.778)"/>
    </g>
    <g id="Group_17841" data-name="Group 17841" transform="translate(156.325 186.435)">
      <path id="Path_35394" data-name="Path 35394" d="M175.124,209.141c-2.473-5.163-9.355-5.8-14.3-4.25-4.742,1.488-5.456,9.135-3.434,12.928,2.216,4.156,7.617,6.382,11.969,4.274a9.6,9.6,0,0,0,4.66-11.856c-.964-2.478-5-1.4-4.027,1.11,2.135,5.488-4.767,10.268-8.52,5.108-1.482-2.039-1.349-6.709,1.17-7.712,2.909-1.157,7.465-.442,8.877,2.507,1.161,2.422,4.763.307,3.606-2.108Z" transform="translate(-156.325 -204.148)"/>
    </g>
    <g id="Group_17842" data-name="Group 17842" transform="translate(183.266 186.414)">
      <path id="Path_35395" data-name="Path 35395" d="M204.751,204.337c-5.26-1-11.026,1.492-12.607,6.935-1.378,4.742,1.561,9.241,6.068,10.8a9.631,9.631,0,0,0,12.14-5.224c2.3-5.322.008-10.893-5.6-12.512-2.587-.746-3.692,3.282-1.11,4.027,6.964,2.01,2.108,12.2-4.319,9.681-6.816-2.673-1.741-10.83,4.319-9.681C206.267,208.862,207.392,204.837,204.751,204.337Z" transform="translate(-191.801 -204.121)"/>
    </g>
  </g>
</svg>
