<svg xmlns="http://www.w3.org/2000/svg" width="67.663" height="78.406" viewBox="0 0 67.663 78.406">
  <g id="Group_17875" data-name="Group 17875" transform="translate(-380.126 -377.396)">
    <path id="Path_35420" data-name="Path 35420" d="M427.906,445.457a25.23,25.23,0,1,0-25.229-25.231,25.251,25.251,0,0,0,25.229,25.231Z" transform="translate(-5.302 -4.138)" fill="#57a5e9" fill-rule="evenodd"/>
    <g id="Group_17864" data-name="Group 17864" transform="translate(404.354 377.396)">
      <path id="Path_35421" data-name="Path 35421" d="M411.8,384.489a6.15,6.15,0,0,0,1.121,3.855,5.642,5.642,0,0,0,3.9,2.015,8,8,0,0,0,4.663-.715,5.454,5.454,0,0,0,2.578-3.225,9.426,9.426,0,0,0,.446-3.47,5.447,5.447,0,0,0-1.7-3.9,6.823,6.823,0,0,0-7.481-.955c-2.431,1.167-3.457,3.846-3.528,6.393a2.122,2.122,0,0,0,2.1,2.1,2.146,2.146,0,0,0,2.1-2.1c.005-.194.015-.389.032-.582.007-.075.022-.155.025-.229-.022.591-.047.34-.015.164.07-.383.24-.743.313-1.118,0,.022-.234.493-.083.205.034-.063.063-.128.1-.191.084-.158.181-.3.276-.453.169-.269-.119.158-.138.173a1.9,1.9,0,0,0,.174-.2c.06-.064.123-.127.188-.187.171-.158.33-.16-.095.054.161-.081.307-.209.467-.3.066-.035.141-.064.2-.1-.4.252-.341.129-.178.076.2-.063.385-.129.585-.174.08-.018.161-.031.24-.049.417-.091-.469.023-.071.015.2,0,.408-.017.614-.006a1.343,1.343,0,0,0,.245.019l-.316-.044c.081.012.161.027.242.044a4.628,4.628,0,0,1,.473.125c.063.021.427.18.091.022-.352-.165.127.071.188.1.125.07.276.231.41.262l-.233-.178c.063.052.125.106.184.162s.115.119.174.176c.255.247-.1-.091-.084-.133a3.035,3.035,0,0,0,.2.333c.114.185-.042.177-.058-.145a2.668,2.668,0,0,0,.11.377c.013.057.08.489.031.112s0,.066,0,.121c.011.18.011.359.008.54-.005.22-.019.439-.039.658a1.628,1.628,0,0,0-.025.247q.075-.529.025-.187c-.009.063-.02.125-.031.186-.034.185-.074.369-.123.551a3.859,3.859,0,0,0-.194.588c0-.043.226-.466.063-.168-.039.07-.074.143-.115.213a1.824,1.824,0,0,0-.2.3l.18-.239c-.052.06-.106.119-.164.174s-.127.1-.178.161c.32-.36.236-.177.045-.066l-.063.037q-.311.153.1-.027a1.17,1.17,0,0,1-.277.1c-.247.081-.5.129-.749.191s-.084-.089.095,0a2.312,2.312,0,0,0-.469.036c-.289.012-.571-.014-.86-.023-.323-.011.516.106.016,0-.154-.032-.307-.061-.459-.1-.088-.024-.176-.048-.263-.076s-.174-.057-.259-.09c.269.119.332.144.19.074a2.922,2.922,0,0,1-.3-.169c0-.006.372.352.027,0-.056-.057-.1-.125-.161-.18.39.369.155.2.061.027-.028-.051-.217-.415-.05-.078s-.03-.132-.052-.213-.04-.161-.057-.242c-.013-.061-.024-.122-.034-.184-.027-.165-.016-.082.033.249a4.547,4.547,0,0,0-.028-.746,2.1,2.1,0,0,0-4.207,0Z" transform="translate(-411.802 -377.396)"/>
    </g>
    <g id="Group_17865" data-name="Group 17865" transform="translate(408.477 388.146)">
      <path id="Path_35422" data-name="Path 35422" d="M417.193,393.556l.216,10.726a2.1,2.1,0,1,0,4.206,0l-.215-10.726a2.1,2.1,0,1,0-4.207,0Z" transform="translate(-417.192 -391.451)"/>
    </g>
    <g id="Group_17866" data-name="Group 17866" transform="translate(380.313 400.821)">
      <path id="Path_35423" data-name="Path 35423" d="M384.261,428.595c1.952-3.893,5.344-7.1,8.551-9.975a24.679,24.679,0,0,1,10.942-5.737c8.08-1.9,16.452.336,23.241,4.89,3.6,2.412,7.36,5.644,8.878,9.827a2.159,2.159,0,0,0,2.588,1.469,2.121,2.121,0,0,0,1.469-2.588c-1.661-4.58-5.061-8.04-8.868-10.945a37.473,37.473,0,0,0-12.5-6.306c-9.178-2.583-19.322-1.048-26.894,4.879a57.483,57.483,0,0,0-5.947,5.576,28.468,28.468,0,0,0-5.092,6.787,2.155,2.155,0,0,0,.755,2.877,2.124,2.124,0,0,0,2.877-.754Z" transform="translate(-380.371 -408.022)"/>
    </g>
    <g id="Group_17867" data-name="Group 17867" transform="translate(430.039 409.824)">
      <path id="Path_35424" data-name="Path 35424" d="M445.383,421.825V450.89c0,2.706,4.206,2.711,4.206,0V421.825c0-2.706-4.206-2.711-4.206,0Z" transform="translate(-445.383 -419.793)"/>
    </g>
    <g id="Group_17868" data-name="Group 17868" transform="translate(418.513 402.801)">
      <path id="Path_35425" data-name="Path 35425" d="M430.313,412.516v21.76h3.945v-.433c0-2.538-3.945-2.542-3.945,0v.433c0,2.539,3.945,2.542,3.945,0v-21.76c0-2.539-3.945-2.543-3.945,0Z" transform="translate(-430.313 -410.61)"/>
    </g>
    <g id="Group_17869" data-name="Group 17869" transform="translate(400.703 402.83)">
      <path id="Path_35426" data-name="Path 35426" d="M407.029,412.68v36.37c0,2.707,4.207,2.711,4.207,0V412.68c0-2.707-4.207-2.711-4.207,0Z" transform="translate(-407.029 -410.648)"/>
    </g>
    <g id="Group_17870" data-name="Group 17870" transform="translate(387.337 409.908)">
      <path id="Path_35427" data-name="Path 35427" d="M389.554,422.006v14.454a2.1,2.1,0,0,0,4.206,0V422.006a2.1,2.1,0,1,0-4.206,0Z" transform="translate(-389.554 -419.903)"/>
    </g>
    <g id="Group_17871" data-name="Group 17871" transform="translate(380.126 424.302)">
      <path id="Path_35428" data-name="Path 35428" d="M387.154,439.927l-.94,2-.47,1c-.205.435-.685.916.138.369q.85-.382.186-.305h-.547l-1.1,0-2.19,0a2.125,2.125,0,0,0-1.487,3.59l1.9,1.7.9.805.5.447c.057.05.114.1.171.154q.155.159-.017-.076l-.122-.837-.045.206a4.871,4.871,0,0,0-.15.638l-.271,1.148-.6,2.552a2.161,2.161,0,0,0,.967,2.375,2.19,2.19,0,0,0,2.549-.329l1.743-1.439.821-.677.41-.339.2-.169q.369-.3-.356.218h-1.118c-.222-.136-.265-.163-.129-.079.06.036.119.073.177.113.18.115.356.235.534.354q.531.357,1.056.724,1.049.735,2.068,1.511a2.113,2.113,0,0,0,3.165-1.816l-.257-2.642-.116-1.189a3.451,3.451,0,0,0-.063-.66l-.016-.2q-.106.345.025-.007l-.541.928c.255-.33-.247.06.145-.12a3.817,3.817,0,0,0,.383-.221,12.736,12.736,0,0,0,1.244-.9,9.685,9.685,0,0,0,1.628-1.649,2.214,2.214,0,0,0,.541-2.047,2.072,2.072,0,0,0-1.469-1.469l-2.258-.407a12.6,12.6,0,0,0-2.213-.4c.113-.158.73.945.534.359a3.074,3.074,0,0,0-.252-.454l-.5-.909-1.136-2.044a2.1,2.1,0,1,0-3.632,2.123l1.262,2.271a5.742,5.742,0,0,0,1.7,2.319,7.272,7.272,0,0,0,2.589.7l2.789.5-.928-3.515a9.771,9.771,0,0,1-.878,1c-.132.128-.268.253-.408.373-.061.053-.391.3-.182.151-.889.65-1.857.985-2.366,2.044a5.6,5.6,0,0,0-.125,3.027l.3,3.038,3.165-1.817q-1.123-.851-2.279-1.657a6.553,6.553,0,0,0-2.712-1.428c-1.312-.177-2.232.813-3.158,1.578L383.56,452.4l3.515,2.047.691-2.935a6.817,6.817,0,0,0,.366-3.346,5.642,5.642,0,0,0-2-2.4l-2.4-2.149-1.487,3.59,2.737-.005a5.939,5.939,0,0,0,2.981-.378,4.463,4.463,0,0,0,1.656-2.271l1.176-2.5a2.162,2.162,0,0,0-.754-2.877,2.122,2.122,0,0,0-2.878.754Z" transform="translate(-380.126 -438.721)"/>
    </g>
    <g id="Group_17872" data-name="Group 17872" transform="translate(393.391 438.546)">
      <path id="Path_35429" data-name="Path 35429" d="M404.5,458.549l-.941,2-.47,1c-.2.436-.685.916.138.369q.85-.382.187-.306l-.548,0-1.1,0-2.19,0a2.126,2.126,0,0,0-1.487,3.59l1.9,1.7.9.805.5.447.17.153q.155.161-.017-.076l-.122-.836-.046.206a5.054,5.054,0,0,0-.15.638l-.271,1.149-.6,2.552a2.159,2.159,0,0,0,.966,2.375,2.191,2.191,0,0,0,2.549-.329l1.742-1.439.821-.677.41-.339.2-.169q.369-.3-.356.219H405.58l-.128-.08c.06.036.119.074.176.113.18.115.356.236.534.354q.531.358,1.056.725c.7.49,1.388,1,2.068,1.511a2.113,2.113,0,0,0,3.165-1.816l-.256-2.642-.115-1.189a3.52,3.52,0,0,0-.064-.66l-.016-.2q-.106.344.025-.008l-.541.928c.255-.329-.247.06.145-.119a3.989,3.989,0,0,0,.383-.222,12.654,12.654,0,0,0,1.244-.9,9.655,9.655,0,0,0,1.628-1.649,2.213,2.213,0,0,0,.541-2.046,2.071,2.071,0,0,0-1.469-1.469l-2.258-.406a12.642,12.642,0,0,0-2.214-.4c.113-.158.73.946.534.359a3.013,3.013,0,0,0-.252-.454l-.5-.908-1.136-2.044a2.1,2.1,0,0,0-3.632,2.123l1.262,2.271a5.737,5.737,0,0,0,1.7,2.319,7.257,7.257,0,0,0,2.589.7l2.789.5-.929-3.515a9.677,9.677,0,0,1-.878,1c-.132.129-.268.253-.408.373-.062.054-.392.3-.182.151-.89.65-1.858.986-2.367,2.044a5.591,5.591,0,0,0-.124,3.026l.3,3.038,3.164-1.816q-1.123-.851-2.279-1.658a6.56,6.56,0,0,0-2.711-1.428c-1.313-.176-2.233.814-3.159,1.579l-2.358,1.947,3.515,2.046.691-2.935a6.817,6.817,0,0,0,.366-3.346,5.646,5.646,0,0,0-2-2.4l-2.4-2.148-1.488,3.59,2.737-.005a5.946,5.946,0,0,0,2.981-.379,4.466,4.466,0,0,0,1.657-2.271l1.175-2.5a2.162,2.162,0,0,0-.754-2.878,2.121,2.121,0,0,0-2.877.755Z" transform="translate(-397.469 -457.343)"/>
    </g>
    <g id="Group_17873" data-name="Group 17873" transform="translate(423.385 438.546)">
      <path id="Path_35430" data-name="Path 35430" d="M443.711,458.549l-.941,2-.47,1c-.2.436-.685.916.138.369q.85-.382.187-.306l-.548,0-1.1,0-2.19,0a2.126,2.126,0,0,0-1.487,3.59l1.9,1.7.9.805.5.447.17.153q.155.161-.017-.076l-.122-.836-.046.206a5.2,5.2,0,0,0-.15.638l-.271,1.149-.6,2.552a2.159,2.159,0,0,0,.966,2.375,2.191,2.191,0,0,0,2.549-.329l1.742-1.439.821-.677.41-.339.2-.169q.371-.3-.356.219h-1.118l-.129-.08c.06.036.119.074.176.113.18.115.356.236.534.354q.531.358,1.056.725c.7.49,1.388,1,2.069,1.511a2.112,2.112,0,0,0,3.164-1.816l-.256-2.642-.115-1.189a3.52,3.52,0,0,0-.064-.66l-.016-.2q-.106.344.025-.008l-.541.928c.255-.329-.247.06.145-.119a3.99,3.99,0,0,0,.383-.222,12.653,12.653,0,0,0,1.244-.9,9.657,9.657,0,0,0,1.628-1.649,2.213,2.213,0,0,0,.541-2.046,2.071,2.071,0,0,0-1.469-1.469l-2.258-.406a12.641,12.641,0,0,0-2.214-.4c.113-.158.73.946.534.359a3.01,3.01,0,0,0-.252-.454l-.5-.908-1.136-2.044a2.1,2.1,0,0,0-3.632,2.123l1.262,2.271a5.738,5.738,0,0,0,1.7,2.319,7.257,7.257,0,0,0,2.589.7l2.789.5-.929-3.515a9.758,9.758,0,0,1-.877,1c-.132.129-.269.253-.408.373-.062.054-.392.3-.182.151-.89.65-1.858.986-2.367,2.044a5.592,5.592,0,0,0-.124,3.026l.3,3.038,3.164-1.816q-1.123-.851-2.279-1.658a6.561,6.561,0,0,0-2.711-1.428c-1.313-.176-2.233.814-3.159,1.579l-2.358,1.947,3.515,2.046.691-2.935a6.817,6.817,0,0,0,.366-3.346,5.646,5.646,0,0,0-2-2.4l-2.4-2.148-1.488,3.59,2.737-.005a5.946,5.946,0,0,0,2.981-.379,4.466,4.466,0,0,0,1.657-2.271l1.175-2.5a2.162,2.162,0,0,0-.754-2.878,2.121,2.121,0,0,0-2.877.755Z" transform="translate(-436.683 -457.343)"/>
    </g>
    <path id="Path_35431" data-name="Path 35431" d="M427.268,444.657a5.007,5.007,0,0,1,3.176,1.194,2.252,2.252,0,0,1,.9,1.967,5.117,5.117,0,0,1-4.51,4.9c1.319-.115,2.9.821,4.363.73a6.527,6.527,0,0,0,4.088-1.718c2.118-2,1.9-4.975.051-7.077C432.955,441.938,429.861,442.354,427.268,444.657Z" transform="translate(-10.983 -15.371)" fill="#fff"/>
    <g id="Group_17874" data-name="Group 17874" transform="translate(413.749 425.325)">
      <path id="Path_35432" data-name="Path 35432" d="M426.621,446.123a2.239,2.239,0,0,0,.432.024c-.164.048-.421-.073-.06,0,.118.024.235.052.35.084a2.243,2.243,0,0,0,.411.135c-.128.03-.388-.184-.04-.011.108.054.214.11.317.171a2.468,2.468,0,0,0,.363.236c-.122,0-.324-.275-.031-.015.09.08.173.168.259.252q.181.211.015.011t-.007.026c-.107-.232-.125-.259-.028,0,.086.224,0-.405-.008-.013,0,.136,0,.269-.006.4,0,.084-.026.463,0,.087s-.008-.007-.028.083q-.041.18-.1.356c-.03.1-.068.193-.1.29-.082.243.212-.436.041-.108a6.662,6.662,0,0,1-.335.588,1.478,1.478,0,0,0-.177.252q.289-.366.137-.184c-.039.048-.08.095-.121.141a5.466,5.466,0,0,1-.438.434c-.047.041-.093.081-.142.12q-.185.15.182-.14c-.081.018-.185.129-.254.174-.182.117-.424.2-.591.327.115-.091.434-.167.106-.048-.1.034-.193.067-.292.095-.119.034-.238.06-.358.088-.391.093.5-.048.071,0a2.273,2.273,0,0,0-1.487.616,2.1,2.1,0,0,0,1.487,3.59,3.645,3.645,0,0,0,.636.015l-.3-.036c.089.015.179.033.268.052s.181.041.272.063c.512.127,1.017.29,1.531.408a8.146,8.146,0,0,0,8.981-4.1,7.181,7.181,0,0,0-.321-6.57,7.675,7.675,0,0,0-5.087-3.855,8.47,8.47,0,0,0-7.041,2.373,2.116,2.116,0,0,0,0,2.974,2.154,2.154,0,0,0,2.975,0c.073-.063.146-.128.22-.19.039-.033.413-.279.122-.1-.257.156,0,0,.069-.044.094-.066.189-.13.285-.193a11.322,11.322,0,0,1,1.044-.562c-.54.274-.083.044.086-.008a5.319,5.319,0,0,1,.532-.14,2.7,2.7,0,0,0,.3-.054c-.037.012-.545.041-.2.035.2,0,.392-.017.59-.007.077,0,.157.018.234.018-.528-.006-.372-.059-.21-.024s.348.077.519.13c.077.024.152.054.229.08.254.082-.4-.2-.163-.069.188.1.376.191.555.306.028.018.272.186.272.185-.014.015-.4-.346-.1-.077.141.127.285.251.418.385.153.154.291.319.434.48.184.205-.239-.341-.088-.114.073.108.149.212.219.321.1.161.2.328.285.5a2.066,2.066,0,0,0,.109.226c-.021-.031-.184-.485-.069-.157.122.346.162.721.28,1.062-.158-.46-.044-.361-.03-.141.005.08.009.159.01.239a2.965,2.965,0,0,0-.021.537c-.008-.033.1-.544.027-.2-.018.078-.031.157-.048.235-.046.2-.133.383-.176.577.094-.425.148-.323.068-.164-.038.074-.073.148-.113.222-.091.168-.2.322-.3.483-.154.241.355-.386.046-.064-.062.064-.119.134-.181.2-.131.137-.434.311-.516.477.021-.042.4-.281.087-.072-.079.053-.155.107-.235.158q-.268.17-.552.314c-.084.042-.17.08-.255.122-.254.125.382-.135.112-.05-.225.07-.444.153-.672.213-.114.03-.229.057-.343.08l-.139.027q-.279.046,0,.007l.139-.018c-.093.011-.187.021-.281.029-.116.009-.231.015-.347.016-.035,0-.346-.017-.346-.016,0-.016.542.093.07.006-.236-.044-.47-.1-.7-.161a10.184,10.184,0,0,0-3.178-.565v4.206a7.339,7.339,0,0,0,4.252-1.843,7.179,7.179,0,0,0,2.144-3.507,4.976,4.976,0,0,0-1.194-5.013,7.261,7.261,0,0,0-4.771-1.906,2.123,2.123,0,0,0-2.1,2.1A2.145,2.145,0,0,0,426.621,446.123Z" transform="translate(-424.085 -440.058)"/>
    </g>
  </g>
</svg>
