<svg xmlns="http://www.w3.org/2000/svg" width="24.379" height="26.595" viewBox="0 0 24.379 26.595"><defs><style>.a{fill:#969caa;}</style></defs><path class="a" d="M313.487,8.311a4.155,4.155,0,1,1,4.155-4.155A4.161,4.161,0,0,1,313.487,8.311Zm0-6.649a2.493,2.493,0,1,0,2.493,2.493A2.5,2.5,0,0,0,313.487,1.662Zm0,0" transform="translate(-293.264)"/><path class="a" d="M313.487,360.311a4.155,4.155,0,1,1,4.155-4.155A4.161,4.161,0,0,1,313.487,360.311Zm0-6.649a2.493,2.493,0,1,0,2.493,2.493A2.5,2.5,0,0,0,313.487,353.662Zm0,0" transform="translate(-293.264 -333.716)"/><path class="a" d="M4.155,184.311a4.155,4.155,0,1,1,4.155-4.155A4.161,4.161,0,0,1,4.155,184.311Zm0-6.649a2.493,2.493,0,1,0,2.493,2.493A2.5,2.5,0,0,0,4.155,177.662Zm0,0" transform="translate(0 -166.858)"/><path class="a" d="M120.521,103.083a.831.831,0,0,1-.412-1.552l10.282-5.862a.831.831,0,0,1,.822,1.444l-10.282,5.862A.833.833,0,0,1,120.521,103.083Zm0,0" transform="translate(-113.472 -90.595)"/><path class="a" d="M130.822,279.073a.824.824,0,0,1-.41-.11L120.13,273.1a.831.831,0,0,1,.822-1.444l10.282,5.862a.831.831,0,0,1-.412,1.554Zm0,0" transform="translate(-113.492 -257.442)"/></svg>