<svg xmlns="http://www.w3.org/2000/svg" width="19.518" height="19.517" viewBox="0 0 19.518 19.517"><defs><style>.a{fill:#03abb9;}</style></defs><path class="a" d="M5.855,15.614a1.952,1.952,0,1,0,1.952,1.952A1.957,1.957,0,0,0,5.855,15.614ZM0,0V1.952H1.952L5.465,9.368,4.1,11.71a3.467,3.467,0,0,0-.2.976,1.957,1.957,0,0,0,1.952,1.952H17.566V12.686H6.246a.21.21,0,0,1-.2-.2v-.1l.878-1.659H14.15a1.78,1.78,0,0,0,1.659-.976l3.513-6.343a.537.537,0,0,0,.2-.488.922.922,0,0,0-.976-.976H4.1L3.22,0ZM15.614,15.614a1.952,1.952,0,1,0,1.952,1.952A1.957,1.957,0,0,0,15.614,15.614Z"/></svg>