<svg xmlns="http://www.w3.org/2000/svg" xmlns:xlink="http://www.w3.org/1999/xlink" width="1010.831" height="785.724" viewBox="0 0 1010.831 785.724"><defs><style>.a{fill:none;}.b{opacity:0.193;}.c{clip-path:url(#a);}.d{fill:#fff;opacity:0.263;}</style><clipPath id="a"><rect class="a" width="1010.831" height="785.724"/></clipPath></defs><g class="b"><g class="c"><path class="d" d="M814.837,785.725a32.3,32.3,0,0,1-10.343-62.89c5.911-2,11.779-3.884,17.585-5.745,29.859-9.577,53.445-17.143,71.759-36.484,20.959-22.134,36.352-52.073,44.511-86.586,12.5-52.888,7.676-110.71,2.171-160.756-12.375-112.49-76.966-222.037-172.778-293.034-85.02-63-184.24-87.847-279.379-69.966C410.626,84.876,373.38,131.86,321.829,196.881l-3,3.792c-14.273,17.991-22.887,28.854-34.328,36.29-13.873,9.02-26.907,9.777-42,10.656-6.489.375-14.565.849-25,1.993-37.68,4.127-62.837,14.27-84.119,33.9-40.823,37.668-57.532,93.85-64.36,134.347-7.28,43.164-5.613,78.522,5.1,108.1,11.847,32.735,36.419,57.7,64.126,65.169a32.291,32.291,0,1,1-16.792,62.361C73.706,640.632,32.3,600.19,13.391,547.948c-14.6-40.328-17.229-86.389-8.051-140.821C17.53,334.814,46.667,275.655,89.591,236.052c31.376-28.949,69.785-45.04,120.874-50.64,12.071-1.326,21.445-1.87,28.288-2.27,4.219-.246,8.925-.52,11.188-.858,3.506-3.115,11.65-13.381,18.287-21.746l2.992-3.78C324.588,89.443,375,25.859,476.434,6.794c113.01-21.245,230.129,7.713,329.76,81.545,110,81.514,184.215,207.816,198.522,337.864,6.092,55.4,11.348,119.782-3.518,182.675-10.776,45.581-31.683,85.743-60.463,116.138-29.709,31.373-64.9,42.659-98.931,53.574-5.49,1.759-11.035,3.534-16.62,5.422a32.274,32.274,0,0,1-10.349,1.713" transform="translate(0 0)"/></g></g></svg>