<svg xmlns="http://www.w3.org/2000/svg" width="21.5" height="21.5" viewBox="0 0 21.5 21.5">
  <defs>
    <style>
      .cls-1 {
        fill: none;
        stroke: #fff;
        stroke-linecap: round;
        stroke-linejoin: round;
        stroke-miterlimit: 10;
        stroke-width: 1.5px;
      }
    </style>
  </defs>
  <g id="Group_18404" data-name="Group 18404" transform="translate(-1660.25 -1020.25)">
    <path id="Stroke_1" data-name="Stroke 1" class="cls-1" d="M2.449,0H5.716A2.459,2.459,0,0,1,8.163,2.47V5.764a2.46,2.46,0,0,1-2.448,2.47H2.449A2.46,2.46,0,0,1,0,5.764V2.47A2.46,2.46,0,0,1,2.449,0Z" transform="translate(1672.837 1021)"/>
    <path id="Stroke_3" data-name="Stroke 3" class="cls-1" d="M2.449,0H5.714A2.46,2.46,0,0,1,8.163,2.47V5.764a2.46,2.46,0,0,1-2.449,2.47H2.449A2.46,2.46,0,0,1,0,5.764V2.47A2.46,2.46,0,0,1,2.449,0Z" transform="translate(1661 1021)"/>
    <path id="Stroke_5" data-name="Stroke 5" class="cls-1" d="M2.449,0H5.714A2.46,2.46,0,0,1,8.163,2.471V5.764a2.46,2.46,0,0,1-2.449,2.47H2.449A2.46,2.46,0,0,1,0,5.764V2.471A2.46,2.46,0,0,1,2.449,0Z" transform="translate(1661 1032.766)"/>
    <path id="Stroke_7" data-name="Stroke 7" class="cls-1" d="M2.449,0H5.716A2.46,2.46,0,0,1,8.163,2.471V5.764a2.459,2.459,0,0,1-2.448,2.47H2.449A2.46,2.46,0,0,1,0,5.764V2.471A2.46,2.46,0,0,1,2.449,0Z" transform="translate(1672.837 1032.766)"/>
  </g>
</svg>
