<svg xmlns="http://www.w3.org/2000/svg" width="19.089" height="22.906" viewBox="0 0 19.089 22.906">
  <defs>
    <style>
      .cls-1 {
        fill: #fff;
      }
    </style>
  </defs>
  <path id="Path_35062" data-name="Path 35062" class="cls-1" d="M77.593,6.737H74.7V3.593A3.761,3.761,0,0,0,70.8,0h-.244a4.154,4.154,0,0,0-1.707.363A4.154,4.154,0,0,0,67.14,0a3.761,3.761,0,0,0-3.9,3.593V6.737H60.1l-.8,16.169H78.392ZM70.766,1.293a2.424,2.424,0,0,1,2.47,2.3V6.737H71.042V3.593A3.4,3.4,0,0,0,70.2,1.371S70.284,1.293,70.766,1.293Zm-1.919.7a2.156,2.156,0,0,1,.732,1.6V6.737H68.116V3.593A2.156,2.156,0,0,1,68.847,1.991ZM64.7,3.593A2.351,2.351,0,0,1,67.14,1.347a2.655,2.655,0,0,1,.351.024,3.4,3.4,0,0,0-.839,2.222V6.737H64.7ZM61.5,8.085h1.739V21.559h-2.4Zm3.2,13.474V8.085h1.951V9.432h1.463V8.085h5.121V9.432H74.7V8.085h1.5l.665,13.474Z" transform="translate(-59.303)"/>
</svg>
