<svg id="Layer_1" data-name="Layer 1" xmlns="http://www.w3.org/2000/svg" viewBox="0 0 50.6 56.69"><defs><style>.cls-1{fill-rule:evenodd;}</style></defs><path id="Path_42733" data-name="Path 42733" class="cls-1" d="M16,48.86c19.11,0,29.51-15.74,29.51-29.51V18A23,23,0,0,0,50.6,12.6a23,23,0,0,1-5.91,1.7,11,11,0,0,0,4.5-5.62,25.9,25.9,0,0,1-6.47,2.53,10,10,0,0,0-7.58-3.38,10.56,10.56,0,0,0-10.4,10.4A5.33,5.33,0,0,0,25,20.47a29,29,0,0,1-21.36-11,10.77,10.77,0,0,0-1.41,5.34,11.2,11.2,0,0,0,4.5,8.72A9.51,9.51,0,0,1,2,22.16H2A10.26,10.26,0,0,0,10.4,32.28a8.57,8.57,0,0,1-2.81.28,4.72,4.72,0,0,1-2-.28,10.64,10.64,0,0,0,9.84,7.3,21.19,21.19,0,0,1-12.93,4.5A7.94,7.94,0,0,1,0,43.8a26.53,26.53,0,0,0,16,5.06"/></svg>